<?xml version="1.0" encoding="utf-8"?>
<svg width="40px" height="48px" viewbox="0 0 40 48" version="1.1" xmlns:xlink="http://www.w3.org/1999/xlink" xmlns="http://www.w3.org/2000/svg">
  <path d="M5.85857 5.82268L5.85715 5.82409Q5.51074 6.16846 5.18172 6.52947Q4.85269 6.89048 4.54185 7.26725Q4.231 7.64403 3.93909 8.03566Q3.64718 8.42729 3.37491 8.83282Q3.10264 9.23835 2.85068 9.6568Q2.59871 10.0753 2.36766 10.5056Q2.13661 10.936 1.92704 11.3772Q1.71747 11.8184 1.52988 12.2694Q1.34229 12.7204 1.17714 13.18Q1.01199 13.6397 0.869685 14.107Q0.727377 14.5743 0.608256 15.048Q0.489135 15.5217 0.393489 16.0007Q0.297843 16.4797 0.225904 16.9628Q0.153966 17.4459 0.10591 17.932Q0.0578539 18.4181 0.0337966 18.9059Q0.00973939 19.3938 0.00973941 19.8822Q0.00973943 20.3707 0.0337967 20.8586Q0.057854 21.3464 0.10591 21.8325Q0.153966 22.3186 0.225905 22.8017Q0.297843 23.2848 0.393489 23.7638Q0.489135 24.2428 0.608256 24.7165Q0.727378 25.1902 0.869686 25.6575Q1.01199 26.1248 1.17714 26.5845Q1.34229 27.0441 1.52988 27.4951Q1.71747 27.9461 1.92704 28.3873Q2.13662 28.8285 2.36766 29.2589Q2.59871 29.6892 2.85068 30.1077Q3.10264 30.5261 3.37491 30.9317Q3.64718 31.3372 3.93909 31.7288Q4.231 32.1205 4.54185 32.4972Q4.85269 32.874 5.18172 33.235Q5.51074 33.596 5.85715 33.9404L20 48L34.1428 33.9404Q34.4893 33.596 34.8183 33.235Q35.1473 32.874 35.4581 32.4972Q35.769 32.1205 36.0609 31.7288Q36.3528 31.3372 36.6251 30.9317Q36.8974 30.5261 37.1493 30.1077Q37.4013 29.6893 37.6323 29.2589Q37.8634 28.8286 38.073 28.3873Q38.2825 27.9461 38.4701 27.4951Q38.6577 27.0441 38.8229 26.5845Q38.988 26.1248 39.1303 25.6575Q39.2726 25.1902 39.3917 24.7165Q39.5109 24.2428 39.6065 23.7638Q39.7022 23.2848 39.7741 22.8017Q39.846 22.3186 39.8941 21.8325Q39.9421 21.3464 39.9662 20.8586Q39.9903 20.3707 39.9903 19.8823Q39.9903 19.3938 39.9662 18.9059Q39.9421 18.4181 39.8941 17.932Q39.846 17.4459 39.7741 16.9628Q39.7022 16.4797 39.6065 16.0007Q39.5109 15.5217 39.3917 15.048Q39.2726 14.5743 39.1303 14.107Q38.988 13.6397 38.8229 13.18Q38.6577 12.7204 38.4701 12.2694Q38.2825 11.8184 38.073 11.3772Q37.8634 10.936 37.6323 10.5056Q37.4013 10.0752 37.1493 9.6568Q36.8974 9.23835 36.6251 8.83282Q36.3528 8.42729 36.0609 8.03566Q35.769 7.64403 35.4581 7.26725Q35.1473 6.89047 34.8183 6.52946Q34.4893 6.16845 34.1428 5.82409L34.1414 5.82268Q33.7935 5.47683 33.4291 5.1484Q33.0648 4.81997 32.6848 4.50975Q32.3047 4.19953 31.91 3.90825Q31.5153 3.61698 31.1068 3.34535Q30.6984 3.07371 30.2771 2.82238Q29.8558 2.57104 29.4228 2.34059Q28.9897 2.11014 28.5459 1.90114Q28.1021 1.69214 27.6486 1.50508Q27.1951 1.31803 26.733 1.15336Q26.2709 0.988697 25.8014 0.846817Q25.3318 0.704937 24.8558 0.586182Q24.3799 0.467426 23.8987 0.372079Q23.4175 0.276733 22.9322 0.205022Q22.4469 0.133312 21.9587 0.0854098Q21.4705 0.0375075 20.9805 0.0135277Q20.4905 -0.0104522 20 -0.0104521Q19.5094 -0.0104521 19.0195 0.0135277Q18.5295 0.0375076 18.0413 0.08541Q17.5531 0.133312 17.0678 0.205023Q16.5825 0.276733 16.1013 0.37208Q15.6201 0.467427 15.1442 0.586182Q14.6682 0.704937 14.1986 0.846817Q13.729 0.988697 13.267 1.15336Q12.8049 1.31803 12.3514 1.50508Q11.8979 1.69214 11.4541 1.90114Q11.0103 2.11014 10.5772 2.34059Q10.1442 2.57104 9.72291 2.82238Q9.30164 3.07372 8.89316 3.34535Q8.48467 3.61698 8.08996 3.90826Q7.69524 4.19953 7.31524 4.50975Q6.93523 4.81998 6.57085 5.1484Q6.20646 5.47683 5.85857 5.82268ZM24.918 19.5563C24.918 22.0765 22.8629 24.1195 20.3279 24.1195C17.7928 24.1195 15.7377 22.0765 15.7377 19.5563C15.7377 17.0362 17.7928 14.9932 20.3279 14.9932C22.8629 14.9932 24.918 17.0362 24.918 19.5563Z" id="Combined-Shape-Copy" fill="#1B1D23" fill-rule="evenodd" stroke="none" />
</svg>